<?xml version="1.0" encoding="UTF-8"?>
<svg version="1.2" baseProfile="tiny-ps"
     xmlns="http://www.w3.org/2000/svg"
     width="512" height="512" viewBox="0 0 150 150">
  <title>FlowIndex</title>
  <rect width="150" height="150" rx="75" fill="#040404"/>
  <path d="M31.9349 50.1628C32.5669 49.7162 33.9263 48.982 34.6457 48.5702L39.8273 45.6227L53.215 37.9657L68.1806 29.3654C69.7795 28.4501 73.4876 26.1459 75.0517 25.4869C76.7285 26.3759 78.7232 27.5942 80.3927 28.5567L90.2069 34.2023L117.4 49.761C117.668 49.9179 117.899 50.005 118.024 50.2718C118.221 54.8078 118.087 100.965 117.978 101.217L117.675 101.464C117.435 101.525 115.163 102.845 114.779 103.062L107.251 107.305L87.8842 118.224C83.6986 120.593 79.1731 123.261 74.9693 125.513C73.7039 124.83 72.3707 124.015 71.1016 123.303L57.1349 115.395L41.0386 106.344C38.0736 104.674 34.8785 102.943 31.9698 101.212C31.8259 99.5878 31.9099 96.7296 31.9111 95.0093L31.9188 83.5963C31.9241 72.5005 31.8073 61.2419 31.9349 50.1628ZM76.767 74.7764C76.6552 84.0679 76.7578 93.6094 76.7642 102.909L76.7569 112.876C76.7468 115.256 76.6964 118.023 76.7963 120.381C77.6888 119.939 78.594 119.441 79.4535 118.937C81.5921 117.684 83.8315 116.522 85.9435 115.232C85.9682 111.73 85.9673 108.229 85.9426 104.727C85.9435 101.514 85.8784 97.9466 85.9838 94.7605C86.8735 94.1166 89.5381 92.7123 90.6156 92.0958C94.3109 89.9977 98.0191 87.9223 101.74 85.8698L101.725 75.5154C98.6953 77.1801 95.6753 78.8612 92.6644 80.5585C90.4864 81.7788 88.127 83.0433 85.9994 84.3255C85.971 83.2299 85.9389 81.2801 86.0223 80.1882C89.2714 78.2936 92.8678 76.3697 96.1811 74.5162L114.505 64.273C114.502 61.5955 114.502 58.9187 114.518 56.2413C114.52 55.8111 114.592 54.5036 114.395 54.2084L114.257 54.1787L87.6963 68.7778C84.0642 70.7968 80.4211 72.7963 76.767 74.7764ZM37.5168 51.106C40.6904 53.0217 43.9496 54.5563 47.0375 56.3595C49.8138 54.8231 74.5725 40.7891 75.1287 40.7985C84.4573 45.8791 93.6732 51.2461 102.978 56.352C104.83 55.3141 106.691 54.2908 108.56 53.2822C109.38 52.8428 111.829 51.571 112.473 51.046C104.449 46.5059 96.4477 41.9235 88.4715 37.2989L79.8778 32.3827C79.0311 31.8973 75.3752 29.6537 74.8025 29.6429L49.6443 44.1002L41.6626 48.6737C40.5713 49.2983 38.485 50.4058 37.5168 51.106ZM99.2084 58.3585C97.2696 57.2054 95.2483 56.1312 93.2774 55.0234L83.8993 49.7422C81.1184 48.1946 78.3302 46.5931 75.5447 45.0473C75.2744 44.8971 75.093 44.8453 74.7842 44.8566C69.216 48.0715 63.4581 51.2106 57.8431 54.3714L53.3708 56.878C52.7193 57.2404 51.3724 57.9464 50.7979 58.3508C53.916 60.2912 58.1198 62.4385 61.3928 64.2674L70.2156 69.1524C70.8882 69.5215 74.6311 71.6647 75.1223 71.6952L92.2053 62.2361C94.1946 61.1259 97.4336 59.5378 99.2084 58.3585Z" fill="#6DEB90"/>
</svg>
